<svg width="138" height="33" viewBox="0 0 138 33" fill="none" xmlns="http://www.w3.org/2000/svg">
<path d="M0.517967 24.3274C0.353492 24.2324 0.21875 23.9995 0.21875 23.8104V8.32749C0.21875 8.1381 0.353492 7.90557 0.517967 7.81035L14.0987 0.0712809C14.2634 -0.0237603 14.5327 -0.0237603 14.6973 0.0712809L28.2772 7.81121C28.4419 7.90625 28.5764 8.13879 28.5764 8.32818V23.8111C28.5764 24 28.4419 24.2327 28.2772 24.3281L14.6973 32.0674C14.5327 32.1624 14.2634 32.1624 14.0987 32.0674L0.517967 24.3274ZM41.3328 9.86843V16.1484H44.0182C45.9671 16.1484 46.8333 15.3544 46.8333 14.0551V11.9617C46.8333 10.6626 45.9671 9.86843 44.0182 9.86843H41.3328ZM41.3328 18.1454V23.7517C41.3328 24.0884 41.2461 24.2327 40.943 24.2327H39.6219C39.3403 24.2327 39.2321 24.0884 39.2321 23.7517V8.35276C39.2321 8.0159 39.3403 7.87137 39.6219 7.87137H44.0182C47.743 7.87137 48.934 9.60376 48.934 11.5768V14.4402C48.934 16.413 47.743 18.1454 44.0182 18.1454H41.3328ZM53.8212 9.86843V15.7634H56.5064C58.4555 15.7634 59.3219 14.9934 59.3219 13.6701V11.9617C59.3219 10.6626 58.4555 9.86843 56.5064 9.86843H53.8212ZM53.8212 17.7605V23.7517C53.8212 24.0884 53.7344 24.2327 53.4312 24.2327H52.1102C51.8287 24.2327 51.7204 24.0884 51.7204 23.7517V8.35276C51.7204 8.0159 51.8287 7.87137 52.1102 7.87137H56.5064C60.2314 7.87137 61.4224 9.60376 61.4224 11.5768V14.0791C61.4224 15.5468 60.7511 16.8702 58.8886 17.4478L61.4874 23.7517C61.5956 24.0404 61.4007 24.2327 61.0976 24.2327H59.7981C59.4949 24.2327 59.4516 24.0404 59.3219 23.7517L56.8745 17.7605H53.8212ZM72.8069 11.7693C72.8069 10.47 71.8927 9.67595 69.8355 9.67595C67.8011 9.67595 66.887 10.47 66.887 11.7693V20.3348C66.887 21.6343 67.8011 22.4281 69.8355 22.4281C71.8927 22.4281 72.8069 21.6343 72.8069 20.3348V11.7693ZM64.6469 11.3843C64.6469 9.41127 65.927 7.67905 69.8355 7.67905C73.7669 7.67905 75.0471 9.41127 75.0471 11.3843V20.72C75.0471 22.693 73.7669 24.4254 69.8355 24.4254C65.927 24.4254 64.6469 22.693 64.6469 20.72V11.3843ZM87.1158 7.87137C87.413 7.87137 87.5501 7.99184 87.5501 8.32853V9.41127C87.5501 9.74813 87.413 9.86843 87.1158 9.86843H83.4587V23.7517C83.4587 24.0884 83.3444 24.2327 83.0471 24.2327H81.6301C81.3329 24.2327 81.2186 24.0884 81.2186 23.7517V9.86843H77.5614C77.2415 9.86843 77.1272 9.74813 77.1272 9.41127V8.32853C77.1272 7.99184 77.2415 7.87137 77.5614 7.87137H87.1158ZM97.768 11.7693C97.768 10.47 96.8537 9.67595 94.7966 9.67595C92.7623 9.67595 91.848 10.47 91.848 11.7693V20.3348C91.848 21.6343 92.7623 22.4281 94.7966 22.4281C96.8537 22.4281 97.768 21.6343 97.768 20.3348V11.7693ZM89.6079 11.3843C89.6079 9.41127 90.8879 7.67905 94.7966 7.67905C98.728 7.67905 100.008 9.41127 100.008 11.3843V20.72C100.008 22.693 98.728 24.4254 94.7966 24.4254C90.8879 24.4254 89.6079 22.693 89.6079 20.72V11.3843ZM113.239 23.7756C113.239 24.0884 113.152 24.2327 112.849 24.2327H111.658C111.441 24.2327 111.355 24.1605 111.268 24.0162L106.179 14.1034C105.702 13.2129 105.443 12.467 105.399 12.3708V23.7756C105.399 24.0884 105.291 24.2327 105.009 24.2327H103.797C103.515 24.2327 103.407 24.0884 103.407 23.7756V8.32853C103.407 8.0159 103.515 7.87137 103.797 7.87137H105.009C105.183 7.87137 105.291 7.94355 105.356 8.06385L110.575 18.1936C110.878 18.771 111.247 19.7333 111.247 19.7333V8.32853C111.247 8.0159 111.376 7.87137 111.658 7.87137H112.849C113.152 7.87137 113.239 8.0159 113.239 8.32853V23.7756ZM116.963 24.2327C116.681 24.2327 116.573 24.0884 116.573 23.7517V8.35276C116.573 8.0159 116.681 7.87137 116.963 7.87137H124.369C124.651 7.87137 124.781 7.99184 124.781 8.32853V9.41127C124.781 9.74813 124.651 9.86843 124.369 9.86843H118.674V14.7288H123.979C124.283 14.7288 124.413 14.8491 124.413 15.1859V16.2206C124.413 16.5334 124.283 16.6777 123.979 16.6777H118.674V22.2358H124.607C124.889 22.2358 125.019 22.3321 125.019 22.6688V23.7756C125.019 24.1126 124.889 24.2327 124.607 24.2327H116.963ZM136.955 7.87137C137.237 7.87137 137.367 7.99184 137.367 8.32853V9.41127C137.367 9.74813 137.237 9.86843 136.955 9.86843H133.49V23.7517C133.49 24.0884 133.382 24.2327 133.101 24.2327H131.758C131.476 24.2327 131.368 24.0884 131.368 23.7517V9.86843H127.903C127.6 9.86843 127.492 9.74813 127.492 9.41127V8.32853C127.492 7.99184 127.6 7.87137 127.903 7.87137H136.955Z" fill="#6A7C92"/>
</svg>
