<svg width="138" height="29" viewBox="0 0 138 29" fill="none" xmlns="http://www.w3.org/2000/svg">
<path d="M25.2623 15.069L25.2804 15.0704L27.1761 15.2686C27.3092 15.2829 27.4314 15.3479 27.5178 15.4494L27.5318 15.4667L27.5138 15.4756C27.6024 15.5875 27.6415 15.7306 27.6219 15.8719C27.2077 19.1647 25.6471 22.2063 23.2138 24.463C20.689 26.8047 17.3727 28.1058 13.9291 28.1058C12.2566 28.1085 10.5984 27.8005 9.03869 27.1979L8.95371 27.1647C8.82605 27.1175 8.72349 27.0204 8.66918 26.8964L8.66102 26.8765C8.60784 26.753 8.60489 26.6139 8.65215 26.4887L9.40041 24.6632C9.5018 24.4051 9.78914 24.2751 10.0486 24.3666L10.0659 24.373C13.8905 25.8498 18.2223 25.018 21.2281 22.2297C23.1413 20.4718 24.3749 18.0968 24.7131 15.5207C24.7489 15.2547 24.9797 15.0611 25.2442 15.0682L25.2623 15.069ZM70.0328 7.32132C71.6492 7.32132 72.9133 7.81448 73.7206 8.76159L73.7476 8.79369V7.99221C73.7584 7.7685 73.9317 7.58769 74.1528 7.56585L74.1708 7.56443H76.3276C76.5495 7.57977 76.726 7.75444 76.7452 7.97428L76.7464 7.99221V19.9649C76.8162 21.6531 76.2972 23.3132 75.2785 24.6612C74.1168 26.0751 72.3518 26.791 70.0328 26.791C66.8089 26.791 64.2649 24.7513 63.8461 21.8379C63.8253 21.6277 63.9534 21.4321 64.1526 21.3661L64.1703 21.3607L66.2776 20.8654C66.2886 20.8629 66.2996 20.8608 66.3107 20.8592C66.542 20.8253 66.757 20.9853 66.7909 21.2166C66.9833 22.8508 68.3879 24.07 70.0328 24.0308C72.5247 24.0308 73.697 22.7642 73.7202 20.1175L73.7206 20.0369V18.9878C72.7865 20.0354 71.4357 20.6143 70.0328 20.5682C66.4487 20.5682 63.8507 17.7856 63.8507 13.9582C63.8178 12.2363 64.4242 10.5631 65.5527 9.26193C66.6988 8.00271 68.3303 7.29606 70.0328 7.32132ZM5.12242 21.8829L5.14915 21.8827L5.17597 21.883C6.0363 21.8928 6.729 22.5885 6.73835 23.4457L6.73842 23.4725C6.73842 23.4814 6.73832 23.4903 6.73816 23.4992C6.72318 24.3769 5.99962 25.0764 5.12191 25.0615C4.2442 25.0465 3.54481 24.323 3.55964 23.4452C3.57431 22.5854 4.26894 21.8967 5.12242 21.8829ZM107.367 7.15472L107.478 7.15554C111.331 7.20875 113.718 9.89069 113.718 14.1834C113.718 14.4105 113.706 14.6375 113.682 14.8633C113.662 15.071 113.492 15.2311 113.286 15.241L113.268 15.2415H104.109C104.166 17.165 105.756 18.687 107.68 18.659C109.172 18.7528 110.531 17.8043 110.958 16.3717C111.036 16.1661 111.258 16.0554 111.468 16.1144L111.485 16.1196L113.313 16.7634C113.414 16.7959 113.496 16.8676 113.543 16.9617L113.551 16.9796C113.601 17.0788 113.61 17.194 113.574 17.2993C112.725 19.8133 110.332 21.4767 107.68 21.3967C105.941 21.414 104.267 20.7346 103.033 19.5101C101.686 18.0925 100.967 16.1918 101.038 14.2374C101.038 9.84666 104.194 7.20786 107.276 7.15553L107.367 7.15472ZM55.5431 7.15473H55.5476C59.4695 7.15473 61.9055 9.84733 61.9055 14.1834C61.9052 14.4105 61.8931 14.6375 61.8694 14.8633C61.8512 15.0721 61.6803 15.2334 61.4726 15.2412L61.4552 15.2415H52.2967C52.3532 17.1704 53.9515 18.6945 55.8808 18.6591C57.3733 18.7545 58.7334 17.8054 59.1588 16.3717C59.2351 16.1644 59.4585 16.053 59.6686 16.1142L59.6856 16.1196L61.5137 16.7634C61.6206 16.798 61.7075 16.8767 61.7524 16.9796C61.7951 17.0819 61.7951 17.197 61.7524 17.2993C60.9039 19.8117 58.5135 21.4747 55.8629 21.3967C54.1209 21.4164 52.4438 20.7369 51.207 19.5101C49.8615 18.0914 49.1427 16.1915 49.2123 14.2374C49.2123 9.80231 52.4318 7.15473 55.5431 7.15473ZM41.6748 7.15018C43.4353 7.15018 44.8582 7.57795 45.9119 8.4199C46.6243 8.98769 47.1523 9.75388 47.4293 10.6218L47.4301 10.6253C47.4663 10.7749 47.3783 10.9256 47.2324 10.969L47.2177 10.9729L45.0338 11.6934C44.9369 11.7318 44.829 11.7318 44.7322 11.6934C44.6495 11.6548 44.5872 11.5827 44.561 11.4953L44.5494 11.4523C44.3505 10.7413 43.7002 9.59966 41.6748 9.59966C40.234 9.59966 39.3695 10.4282 39.3695 11.2297L39.3698 11.2614C39.3806 11.7826 39.664 12.4367 40.9067 12.6854L40.9454 12.693L43.3499 13.1432C46.0066 13.6782 47.538 15.1222 47.5684 17.1345L47.5688 17.1957L47.5598 17.1598L47.5593 17.2208C47.5206 19.238 45.5694 21.3607 41.9765 21.3607C37.7665 21.3607 36.114 18.9788 35.8078 17.574C35.7878 17.427 35.8775 17.2882 36.0177 17.245L36.0329 17.2407L38.2843 16.5383C38.3245 16.5318 38.3656 16.5318 38.4059 16.5383C38.4631 16.5373 38.5197 16.5494 38.5713 16.5737L38.5904 16.5833C38.6732 16.623 38.7342 16.6972 38.757 16.7859C39.0408 18.1368 40.261 18.9428 42.017 18.9428C43.6515 18.9428 44.3945 18.0872 44.3945 17.3128C44.3945 16.5468 43.747 15.979 42.6308 15.7445L42.5934 15.7368L40.0674 15.246C37.7124 14.8003 36.2446 13.3369 36.2446 11.4322C36.2446 9.11334 38.7346 7.15018 41.6748 7.15018ZM132.485 3.39946H134.453C134.685 3.4134 134.867 3.6017 134.876 3.83233L134.876 3.84971V7.54644H137.244C137.475 7.56263 137.655 7.7501 137.663 7.979L137.664 7.99669V9.95986L137.664 9.97695C137.657 10.1971 137.482 10.3758 137.262 10.3871L137.244 10.3876H134.876V16.9571C134.876 18.0467 135.308 18.497 136.42 18.497C136.645 18.4931 136.871 18.476 137.094 18.4458L137.177 18.4339C137.3 18.4131 137.425 18.4478 137.519 18.5285C137.604 18.6074 137.655 18.7158 137.663 18.831L137.664 18.8527V20.7033C137.665 20.8919 137.542 21.0589 137.362 21.1131C136.843 21.2582 136.308 21.3311 135.769 21.3298L135.696 21.3292C133.346 21.3292 131.88 19.8331 131.851 17.4134L131.851 17.3398V10.4147H129.802C129.578 10.4015 129.399 10.2262 129.38 10.0049L129.379 9.98688V8.01468C129.378 7.78201 129.555 7.58838 129.784 7.5658L129.802 7.56443L130.353 7.56436L130.411 7.56332C131.054 7.54485 132.042 7.28426 132.062 5.84906L132.062 5.80384V3.84971C132.062 3.61704 132.239 3.4234 132.468 3.40083L132.485 3.39946ZM94.2417 7.15273L94.2933 7.15473H94.2887C96.6068 7.15473 98.947 8.76986 98.9935 12.2973L98.9942 12.4048V20.7438C98.9837 20.9676 98.8099 21.1483 98.589 21.1702L98.571 21.1716H96.414C96.1907 21.1584 96.012 20.9832 95.9921 20.7619L95.9908 20.7438V12.675L95.9904 12.6129C95.9773 11.5848 95.6278 9.93282 93.5102 9.93282C91.9451 9.93282 90.8304 11.1509 90.8083 12.9228L90.8079 12.9767V20.7438C90.7974 20.9676 90.6243 21.1483 90.4028 21.1702L90.3847 21.1716H88.2014C87.9774 21.1584 87.7987 20.9832 87.7794 20.7619L87.7782 20.7438V12.675L87.7778 12.6129C87.7647 11.5848 87.4153 9.93282 85.2969 9.93282C83.6699 9.93282 82.5681 11.142 82.5463 12.9488L82.546 13.0037V20.7438C82.5347 20.9676 82.3616 21.1483 82.1407 21.1702L82.1227 21.1716H79.9657C79.7439 21.1563 79.5675 20.9815 79.5483 20.7618L79.5471 20.7438V7.96518C79.5577 7.74304 79.7285 7.56287 79.9478 7.53899L79.9657 7.5374H82.0416C82.265 7.55056 82.4444 7.72583 82.4636 7.94713L82.4649 7.96518V8.73515C83.3986 7.7114 84.7261 7.1362 86.1116 7.15473C87.7164 7.1077 89.2139 7.95614 89.9978 9.35646C90.9313 7.93008 92.5408 7.09561 94.2417 7.15273ZM126.537 8.74411C127.364 9.83269 127.79 11.1716 127.746 12.5362L127.744 12.5939V20.7438C127.733 20.966 127.562 21.1462 127.343 21.17L127.325 21.1716H125.142C124.918 21.1584 124.739 20.9832 124.719 20.7619L124.718 20.7438V13.0307C124.718 11.0135 123.768 9.98688 121.967 9.98688C121.171 9.96117 120.411 10.3156 119.918 10.9414C119.442 11.6284 119.195 12.4483 119.215 13.2833L119.216 13.3324V20.7438C119.205 20.9676 119.032 21.1483 118.811 21.1702L118.793 21.1716H116.613C116.39 21.1584 116.211 20.9832 116.191 20.7619L116.19 20.7438V7.95614C116.201 7.73243 116.374 7.5517 116.595 7.52979L116.613 7.52837H118.743C118.965 7.54371 119.142 7.71844 119.161 7.93822L119.162 7.95614V8.85671C120.076 7.74986 121.446 7.12268 122.881 7.15473C124.279 7.09496 125.628 7.68105 126.537 8.74411ZM1.03795 15.6153H16.5408C16.8257 15.6177 17.0558 15.8458 17.063 16.1285L17.0631 16.1466V18.0873C17.0655 18.3722 16.8413 18.6062 16.5588 18.6181L16.5407 18.6186H1.03795C0.753009 18.6161 0.522938 18.388 0.515625 18.1053V18.0872V16.1465V16.1284C0.522786 15.8519 0.743183 15.6276 1.01945 15.6158L1.03795 15.6153ZM70.4066 10.0139C68.2813 10.0139 66.9305 11.5268 66.9305 13.9582C66.9305 16.3897 68.2632 17.8981 70.4066 17.8981C72.4508 17.8981 73.8286 16.3132 73.8286 13.9582C73.8286 11.5988 72.4508 10.0139 70.4066 10.0139ZM52.3925 12.6447L52.3868 12.693H58.7941C58.6381 10.9813 57.4318 9.91385 55.6251 9.89268L55.5702 9.89235C53.9782 9.86647 52.6225 11.0308 52.399 12.5971L52.3925 12.6447ZM104.223 12.6447L104.217 12.693H110.625C110.469 10.9813 109.262 9.91385 107.456 9.89268L107.401 9.89235C105.809 9.86647 104.453 11.0308 104.229 12.5971L104.223 12.6447ZM18.4814 0.805868C18.6156 0.854291 18.7245 0.954998 18.7831 1.08505C18.8369 1.21634 18.8369 1.36354 18.7831 1.49475L18.1077 3.29589C18.0141 3.56295 17.7221 3.7039 17.4548 3.61107C13.9165 2.37633 9.99029 3.07788 7.09859 5.46164C5.29644 6.97008 4.01683 9.00932 3.4424 11.2881C3.38294 11.5183 3.17573 11.6792 2.93809 11.6799H2.82102L0.965891 11.2341C0.827573 11.2016 0.708795 11.1137 0.637203 10.9909H0.628167C0.553101 10.8683 0.53194 10.7201 0.569705 10.5812C1.30639 7.66414 2.95478 5.05827 5.27498 3.14275C8.96437 0.105398 13.9738 -0.781039 18.4814 0.805868ZM11.6148 8.58656H27.1176C27.3955 8.58883 27.6225 8.80617 27.6391 9.0814L27.6399 9.09983V11.0405C27.6423 11.3255 27.4182 11.5595 27.1357 11.5714L27.1176 11.5719H11.6148C11.3317 11.567 11.1043 11.3397 11.0971 11.0589L11.0969 11.0405V9.11782C11.0945 8.83475 11.3158 8.60162 11.5964 8.58719L11.6148 8.58656ZM22.3768 2.66545L22.4035 2.66524L22.4303 2.66547C23.2906 2.67533 23.9833 3.37099 23.9927 4.22809L23.9928 4.25493C23.9928 4.26389 23.9926 4.27284 23.9925 4.28173C23.9776 5.15944 23.2539 5.85882 22.3762 5.84392C21.4985 5.82901 20.7991 5.10538 20.814 4.22774C20.8286 3.36787 21.5233 2.67919 22.3768 2.66545Z" fill="#6A7C92"/>
</svg>
