<svg width="138" height="22" viewBox="0 0 138 22" fill="none" xmlns="http://www.w3.org/2000/svg">
<path d="M19.2721 21.7518V16.1914H13.2168C11.5701 16.1914 10.0448 17.0558 9.20137 18.4671L7.23828 21.7518H19.2721Z" fill="#6A7C92"/>
<path d="M0 0.390625V5.95102H15.949L19.2722 0.390625H0Z" fill="#6A7C92"/>
<path d="M7.63304 9.08083L0.0175781 21.7519H6.50577L15.6125 6.59277H12.0297C10.2276 6.59277 8.55802 7.53758 7.63304 9.08083Z" fill="#6A7C92"/>
<path d="M33.0764 16.415C29.8138 16.415 27.4131 14.0436 27.4131 10.8612C27.4131 7.70939 29.8292 5.30731 33.0918 5.30731C36.3543 5.30731 38.7704 7.73999 38.7704 10.8612C38.7704 14.013 36.3389 16.415 33.0764 16.415ZM33.0918 14.4719C35.1539 14.4719 36.6313 12.942 36.6313 10.8612C36.6313 8.81099 35.1539 7.2504 33.0918 7.2504C31.0142 7.2504 29.5368 8.81099 29.5368 10.8612C29.5368 12.942 31.0142 14.4719 33.0918 14.4719ZM40.9552 19.7351V8.16839H42.925V9.19348H43.0327C43.2482 8.85689 43.9869 7.96949 45.4643 7.96949C47.7265 7.96949 49.2808 9.65248 49.2808 12.1617C49.2808 14.6708 47.7419 16.415 45.5258 16.415C44.0946 16.415 43.3251 15.6194 43.0635 15.1757H42.9558V19.7351H40.9552ZM45.0795 14.6096C46.3722 14.6096 47.2494 13.6152 47.2494 12.1923C47.2494 10.7235 46.3722 9.77488 45.0641 9.77488C43.7406 9.77488 42.9096 10.8306 42.9096 12.1923C42.9096 13.6917 43.833 14.6096 45.0795 14.6096ZM55.0051 16.415C52.6197 16.415 50.9269 14.6402 50.9269 12.2382C50.9269 9.69838 52.6351 7.96949 55.0051 7.96949C57.6059 7.96949 59.0217 9.88198 59.0217 12.1464V12.7737H52.866C52.9275 13.9977 53.7739 14.8238 55.0667 14.8238C56.0516 14.8238 56.8057 14.3649 57.0827 13.707H58.9448C58.5447 15.344 57.0981 16.415 55.0051 16.415ZM52.8968 11.3661H57.1134C57.0211 10.2798 56.1747 9.56068 55.0051 9.56068C53.8817 9.56068 53.0199 10.3563 52.8968 11.3661ZM61.1757 16.2161V8.16839H63.084V9.14758H63.1917C63.5149 8.55089 64.3151 7.96949 65.4693 7.96949C67.2853 7.96949 68.3933 9.23938 68.3933 10.953V16.2161H66.3927V11.4732C66.3927 10.494 65.7617 9.83608 64.8383 9.83608C63.8688 9.83608 63.1763 10.6011 63.1763 11.6109V16.2161H61.1757ZM70.3779 16.2161V14.3955L75.9797 7.37279V7.2657H70.578V5.50621H78.5343V7.3116L72.9326 14.3343V14.4566H78.5651V16.2161H70.3779ZM83.9816 16.415C81.5962 16.415 79.9034 14.6402 79.9034 12.2382C79.9034 9.69838 81.6116 7.96949 83.9816 7.96949C86.5824 7.96949 87.9982 9.88198 87.9982 12.1464V12.7737H81.8425C81.904 13.9977 82.7504 14.8238 84.0431 14.8238C85.0281 14.8238 85.7821 14.3649 86.0592 13.707H87.9213C87.5211 15.344 86.0745 16.415 83.9816 16.415ZM81.8732 11.3661H86.0899C85.9976 10.2798 85.1512 9.56068 83.9816 9.56068C82.8582 9.56068 81.9964 10.3563 81.8732 11.3661ZM90.1522 19.7351V8.16839H92.122V9.19348H92.2297C92.4452 8.85689 93.1839 7.96949 94.6612 7.96949C96.9235 7.96949 98.4778 9.65248 98.4778 12.1617C98.4778 14.6708 96.9389 16.415 94.7228 16.415C93.2916 16.415 92.5221 15.6194 92.2605 15.1757H92.1528V19.7351H90.1522ZM94.2765 14.6096C95.5692 14.6096 96.4464 13.6152 96.4464 12.1923C96.4464 10.7235 95.5692 9.77488 94.2611 9.77488C92.9376 9.77488 92.1066 10.8306 92.1066 12.1923C92.1066 13.6917 93.03 14.6096 94.2765 14.6096ZM100.632 19.7351V8.16839H102.602V9.19348H102.709C102.925 8.85689 103.663 7.96949 105.141 7.96949C107.403 7.96949 108.957 9.65248 108.957 12.1617C108.957 14.6708 107.418 16.415 105.202 16.415C103.771 16.415 103.002 15.6194 102.74 15.1757H102.632V19.7351H100.632ZM104.756 14.6096C106.049 14.6096 106.926 13.6152 106.926 12.1923C106.926 10.7235 106.049 9.77488 104.741 9.77488C103.417 9.77488 102.586 10.8306 102.586 12.1923C102.586 13.6917 103.51 14.6096 104.756 14.6096ZM114.682 16.415C112.296 16.415 110.604 14.6402 110.604 12.2382C110.604 9.69838 112.312 7.96949 114.682 7.96949C117.282 7.96949 118.698 9.88198 118.698 12.1464V12.7737H112.543C112.604 13.9977 113.451 14.8238 114.743 14.8238C115.728 14.8238 116.482 14.3649 116.759 13.707H118.621C118.221 15.344 116.775 16.415 114.682 16.415ZM112.573 11.3661H116.79C116.698 10.2798 115.851 9.56068 114.682 9.56068C113.558 9.56068 112.696 10.3563 112.573 11.3661ZM122.822 16.2161C121.406 16.2161 120.606 15.3746 120.606 13.9518V4.74121H122.607V13.7682C122.607 14.2272 122.837 14.4719 123.253 14.4719H123.576V16.2161H122.822ZM126.5 7.0974C125.776 7.0974 125.268 6.6537 125.268 5.9346C125.268 5.24611 125.776 4.78711 126.5 4.78711C127.223 4.78711 127.731 5.24611 127.731 5.9346C127.731 6.6537 127.223 7.0974 126.5 7.0974ZM125.499 16.2161V8.16839H127.5V16.2161H125.499ZM129.931 16.2161V8.16839H131.839V9.14758H131.947C132.27 8.55089 133.07 7.96949 134.224 7.96949C136.04 7.96949 137.148 9.23938 137.148 10.953V16.2161H135.148V11.4732C135.148 10.494 134.517 9.83608 133.594 9.83608C132.624 9.83608 131.931 10.6011 131.931 11.6109V16.2161H129.931Z" fill="#6A7C92"/>
</svg>
