<svg width="138" height="26" viewBox="0 0 138 26" fill="none" xmlns="http://www.w3.org/2000/svg">
<path d="M3.6598 20.3157C2.6311 20.318 1.68076 19.7665 1.17228 18.8722C0.671125 17.9835 0.701177 16.8908 1.25042 16.0309L6.37306 7.98663C6.90684 7.10645 7.87291 6.58154 8.90182 6.61264C9.92999 6.63728 10.8652 7.21375 11.3492 8.12121C11.8267 9.02419 11.767 10.1106 11.1951 10.9582L6.07569 19.0025C5.54806 19.8247 4.63672 20.3201 3.6598 20.3157Z" fill="#6A7C92"/>
<path d="M12.4466 20.3154C11.4134 20.3154 10.4627 19.7629 9.96344 18.8751C9.4634 17.9888 9.49345 16.8988 10.0416 16.0414L15.1545 8.01558C15.6805 7.12277 16.6495 6.58554 17.6854 6.61228C18.7273 6.63507 19.6715 7.21788 20.149 8.12954C20.6233 9.0412 20.5538 10.1341 19.9645 10.9796L14.8527 19.0054C14.3268 19.824 13.4196 20.3179 12.4466 20.3154Z" fill="#6A7C92"/>
<path d="M21.0367 20.3836C22.4932 20.3836 23.674 19.2276 23.674 17.8017C23.674 16.3757 22.4932 15.2197 21.0367 15.2197C19.5802 15.2197 18.3994 16.3757 18.3994 17.8017C18.3994 19.2276 19.5802 20.3836 21.0367 20.3836Z" fill="#6A7C92"/>
<path d="M135.608 15.3683C136.404 15.3683 136.881 15.9348 136.881 16.8627V20.0427H137.963V16.79C137.963 15.212 137.219 14.2971 135.821 14.2971C135.274 14.2971 134.406 14.4469 133.889 15.4529C133.643 14.8483 133.086 14.4272 132.437 14.3568C132.237 14.3201 132.033 14.3081 131.83 14.321C131.385 14.3568 130.592 14.6335 130.296 15.2608V14.4176H129.213V20.0427H130.296V17.0071C130.296 15.8263 131.069 15.3683 131.843 15.3683C132.568 15.3683 133.044 15.9229 133.044 16.8508V20.0427H134.121V17.0071C134.121 16.0672 134.685 15.3574 135.608 15.3683ZM125.238 19.1028C125.732 19.1137 126.21 18.9161 126.556 18.558C126.904 18.1998 127.088 17.7125 127.07 17.2122C127.07 16.0792 126.236 15.3683 125.238 15.3683C124.238 15.3683 123.406 16.0792 123.406 17.2122C123.386 17.7115 123.571 18.1977 123.916 18.5547C124.261 18.9129 124.736 19.1115 125.229 19.1028H125.238ZM125.238 20.1577C123.655 20.1577 122.334 18.9889 122.334 17.2057C122.334 15.4225 123.655 14.2906 125.238 14.2906C126.82 14.2906 128.152 15.4225 128.152 17.2057C128.152 18.9889 126.812 20.1632 125.23 20.1632L125.238 20.1577ZM116.761 17.2057L116.75 17.2122C116.75 15.4291 118.106 14.2971 119.699 14.2906C120.509 14.2749 121.287 14.603 121.841 15.1935L121.02 15.8925C120.668 15.5468 120.193 15.3562 119.699 15.3629C118.701 15.3629 117.833 16.0737 117.833 17.2057C117.833 17.9708 118.287 18.66 118.985 18.953C119.683 19.2461 120.486 19.0833 121.02 18.5428L121.852 19.2417C121.297 19.8383 120.514 20.1712 119.699 20.1577C118.118 20.1577 116.761 18.9889 116.761 17.2057ZM113.296 18.9628C113.294 18.7642 113.37 18.5728 113.509 18.4307C113.648 18.2887 113.838 18.2076 114.036 18.2053C114.235 18.2076 114.424 18.2887 114.563 18.4307C114.702 18.5728 114.779 18.7642 114.776 18.9628C114.756 19.3582 114.432 19.6696 114.036 19.6737C113.64 19.6696 113.316 19.3582 113.296 18.9628Z" fill="#6A7C92"/>
<path d="M116.257 7.26708H112.403L109.702 14.2315L107.014 7.26708H103.161L107.846 18.2721L104.932 25.548H108.757L116.257 7.26708ZM92.8187 13.3882C92.8187 15.1464 94.3555 16.3033 95.8651 16.3033C97.3488 16.3033 98.8063 15.2267 98.8063 13.3871C98.8063 11.5475 97.3488 10.4698 95.8651 10.4698C94.3555 10.4698 92.8187 11.6278 92.8187 13.3871V13.3882ZM98.8063 19.5332V18.1408C98.0249 19.3237 96.2016 19.7709 95.2661 19.7709C92.1686 19.7709 89.07 17.3289 89.07 13.3871C89.07 9.44637 92.1675 7.00443 95.2661 7.00443C96.0464 7.00443 97.8697 7.26491 98.8063 8.63239V7.27142H102.399V19.5354L98.8063 19.5343V19.5332ZM88.0477 19.5332H84.4553V18.0094C83.8551 19.1381 82.3998 19.7958 80.889 19.7958C77.7644 19.7958 75.0045 17.3007 75.0045 13.437C75.0045 9.50064 77.7644 7.00226 80.889 7.00226C82.3976 7.00226 83.8573 7.63174 84.4553 8.76154V0.585938H88.0477V19.5332ZM84.3772 13.36C84.3772 11.5215 83.0499 10.4438 81.5662 10.4438C80.0294 10.4438 78.7531 11.5996 78.7531 13.36C78.7531 15.1768 80.0294 16.3272 81.5652 16.3272C83.077 16.3294 84.3772 15.1203 84.3772 13.36ZM66.1223 13.0431C66.1223 11.1785 67.0861 10.548 68.3613 10.548C69.5845 10.548 70.4701 11.3619 70.4701 12.9899V19.531H74.0885V12.203C74.0885 8.71053 72.3694 7.00226 69.6355 7.00226C68.204 7.00226 66.7724 7.81624 66.1213 9.05132V7.26708H62.505V19.531H66.1223V13.0431ZM55.1575 19.7416C51.7214 19.7416 48.8551 17.2204 48.8551 13.3589C48.8551 9.49521 51.7182 6.99901 55.1575 6.99901C58.5968 6.99901 61.4848 9.49521 61.4848 13.3589C61.4848 17.2226 58.5936 19.7427 55.1575 19.7427V19.7416ZM55.1575 16.1709C56.6661 16.1709 57.9174 15.0661 57.9174 13.36C57.9174 11.7049 56.6672 10.5751 55.1575 10.5751C54.4229 10.5636 53.7158 10.8544 53.2018 11.3793C52.6849 11.9069 52.4041 12.6216 52.4236 13.36C52.4247 15.0683 53.6739 16.1709 55.1575 16.1709ZM42.3683 10.549C43.4351 10.549 44.3728 11.3902 44.3728 12.991V19.5332H47.9652V12.5677C47.9652 8.86465 46.1647 7.00009 43.2788 7.00009C42.4214 7.00009 40.8065 7.26057 39.6344 9.17939C38.9571 7.76089 37.6559 7.02505 35.7327 7.02505C34.369 7.01812 33.1272 7.80921 32.5571 9.04807V7.26816H28.9365V19.5321H32.5538V13.0431C32.5538 11.1785 33.5697 10.548 34.6626 10.548C35.7045 10.548 36.64 11.3619 36.6672 12.9118V19.5321H40.2856V13.0431C40.2856 11.2599 41.2233 10.5501 42.3683 10.5501V10.549Z" fill="#6A7C92"/>
</svg>
