<svg width="138" height="30" viewBox="0 0 138 30" fill="none" xmlns="http://www.w3.org/2000/svg">
<path d="M136.384 10.7539C137.459 11.6238 136.32 12.9998 135.371 12.304C134.201 11.5606 131.544 11.2127 131.212 12.8575C130.785 15.4514 137.665 13.9647 137.554 18.1717C137.443 22.1892 131.623 22.2841 129.44 20.481C128.918 20.054 128.934 19.358 129.219 18.9309C129.63 18.5198 130.089 18.3774 130.626 18.8202C131.923 19.706 135.261 20.3703 135.498 18.1244C135.292 15.7835 128.713 17.1912 129.203 12.6994C129.567 9.63099 134.201 9.07736 136.384 10.7539ZM126.008 11.3707V17.0963C126.008 23.0116 116.47 23.0116 116.47 17.0963V11.3707C116.47 9.94737 118.542 9.88405 118.542 11.3707V17.0963C118.542 20.2121 123.936 20.4019 123.936 17.0963V11.3707C123.936 9.96308 126.008 9.85238 126.008 11.3707ZM60.6999 9.93154C63.4677 10.0738 66.3621 11.9876 66.3621 15.7361C66.3621 19.4845 63.4677 21.43 60.6999 21.43C57.7738 21.5565 54.7371 19.6111 54.7371 15.7361C54.7371 11.8452 57.7738 9.93154 60.6999 9.93154ZM74.6344 10.3268C78.6518 10.3268 79.4742 15.7045 76.1212 17.0488L78.2247 19.6111C79.0472 20.829 77.4023 21.9993 76.4533 20.7973L74.065 17.381H71.5819V20.2437C71.5819 21.6197 69.4783 21.6672 69.4783 20.2754V11.2917C69.4783 10.7381 69.9054 10.3268 70.4273 10.3268H74.6344ZM41.8621 10.1846C42.3208 10.1846 42.5896 10.4535 42.8585 10.7539L46.3381 15.4514L49.9443 10.5799C50.4662 9.93155 51.7473 10.1846 51.7473 11.2759V20.1805C51.7473 20.8764 51.3044 21.2718 50.7983 21.2718C50.2289 21.2718 49.7861 20.8764 49.7861 20.1805V14.3285L47.1606 17.6499C46.5911 18.3458 45.8794 18.3458 45.3575 17.6499L43.0008 14.3285V20.1805C43.0008 20.8764 42.4315 21.2718 41.8621 21.2718C41.3559 21.2718 40.9131 20.8764 40.9131 20.1805V11.2759C40.9131 10.4535 41.609 10.1846 41.8621 10.1846ZM86.1017 10.1846C88.1578 10.1846 90.0083 11.5606 90.0083 14.2019C90.0083 16.7009 88.1578 18.0927 86.1017 18.0927H83.4603V20.1805C83.4603 20.8764 83.0174 21.2718 82.448 21.2718C81.9262 21.2718 81.3725 20.8764 81.3725 20.1805V11.2759C81.3725 10.7539 81.7838 10.1846 82.448 10.1846H86.1017ZM101.207 10.3268C101.76 10.3268 102.187 10.7381 102.187 11.3075V20.2912C102.187 20.8447 101.76 21.2718 101.207 21.2718C100.637 21.2718 100.131 20.8447 100.131 20.2912V16.8274H94.9752V20.2912C94.9752 20.8447 94.5639 21.2718 94.0103 21.2718C93.2986 21.2718 92.8873 20.8447 92.8873 20.2912V11.3075C92.8873 10.7381 93.2986 10.3268 94.0103 10.3268C94.5639 10.3268 94.9752 10.7381 94.9752 11.3075V14.7555H100.131V11.3075C100.131 10.7381 100.637 10.3268 101.207 10.3268ZM112.215 10.3268C113.67 10.3268 113.639 12.383 112.215 12.383H107.66V14.7555H111.646C113.054 14.7555 113.054 16.8274 111.646 16.8274H107.66V19.1998H112.484C113.924 19.1998 114.034 21.2718 112.484 21.2718H106.537C105.984 21.2718 105.557 20.8447 105.557 20.2912V11.3075C105.557 10.7381 105.984 10.3268 106.537 10.3268H112.215ZM60.5259 11.9876C58.7544 11.9876 56.8249 13.2372 56.8249 15.7361C56.8249 18.2192 58.7544 19.4845 60.5259 19.4845C62.3448 19.4845 64.2902 18.2192 64.2902 15.7361C64.2902 13.2372 62.3448 11.9876 60.5259 11.9876ZM86.1017 12.1774H83.4603V16.1157H86.1017C87.1613 16.1157 87.9996 15.1825 87.9996 14.2019C87.9996 13.0948 87.1613 12.1774 86.1017 12.1774ZM74.6344 12.2406H71.5819V15.5621H74.6344C76.6905 15.5621 76.8171 12.2406 74.6344 12.2406Z" fill="#6A7C92"/>
<path d="M28.3667 18.6302C26.8247 24.8252 21.1829 29.2327 14.538 29.2327C7.8631 29.2327 2.26981 24.5643 0.791016 18.3437C2.56919 18.3437 4.23153 18.3518 5.00327 18.3518C5.36733 18.3518 5.43803 18.3582 5.4591 18.3566C6.03978 18.3281 6.76791 18.1364 7.25231 16.9585L9.09819 12.1299L13.1976 22C13.5662 22.7868 14.1815 22.7311 14.5485 22.7311H14.5831C15.2992 22.7311 15.6106 22.4801 15.8829 21.9611L20.5134 12.2039L22.093 16.6013L22.1893 16.8142C22.5233 17.5468 22.7635 18.2705 23.59 18.365C23.7604 18.3845 25.7389 18.35 28.4062 18.35C28.4062 18.35 28.4062 18.3671 28.3667 18.6302Z" fill="#6A7C92"/>
<path d="M28.8194 14.9814C28.8194 15.0551 28.8194 15.2405 28.8179 15.2405H28.8149H24.5576L22.0738 8.30221C21.8527 7.78621 21.5202 7.01265 20.5514 7.01265C19.9586 7.01265 19.4231 7.50217 19.1192 8.31002L14.6166 18.7394L10.2825 8.37328C9.85825 7.45261 9.5649 7.01961 8.71643 7.01961C8.14025 7.01961 7.71752 7.23185 7.25718 8.32252L4.6847 15.3435L0.410758 15.339C0.407747 15.2322 0.40625 15.1254 0.40625 15.0186C0.40625 7.21391 6.73366 0.90625 14.5384 0.90625C22.3431 0.90625 28.8194 7.17668 28.8194 14.9814Z" fill="#6A7C92"/>
</svg>
