<svg width="138" height="18" viewBox="0 0 138 18" fill="none" xmlns="http://www.w3.org/2000/svg">
<path d="M59.911 11.7557H68.9735L64.1816 4.04621L55.3867 17.9853H51.3841L62.0815 1.24149C62.5466 0.564969 63.3218 0.15625 64.1816 0.15625C65.013 0.15625 65.7882 0.550882 66.2392 1.2133L76.9789 17.9853H72.9762L71.0876 14.8705H61.9123L59.911 11.7557ZM101.489 14.8705V0.325379H98.0919V16.294C98.0919 16.7309 98.261 17.1537 98.5852 17.4779C98.9093 17.802 99.3462 17.9853 99.8254 17.9853H115.315L117.316 14.8705H101.489ZM45.2954 12.2631C48.5935 12.2631 51.2714 9.59929 51.2714 6.30127C51.2714 3.00326 48.5935 0.325379 45.2954 0.325379H30.436V17.9853H33.8313V3.44017H45.0699C46.6485 3.44017 47.917 4.72273 47.917 6.30127C47.917 7.8798 46.6485 9.16237 45.0699 9.16237L35.4944 9.14827L45.6336 17.9853H50.5667L43.7451 12.2631H45.2954ZM9.53456 17.9853C4.65936 17.9853 0.703125 14.0389 0.703125 9.16237C0.703125 4.28581 4.65936 0.325379 9.53456 0.325379H19.7992C24.6758 0.325379 28.6292 4.28581 28.6292 9.16237C28.6292 14.0389 24.6758 17.9853 19.7992 17.9853H9.53456ZM19.5709 14.8705C22.7294 14.8705 25.2875 12.3194 25.2875 9.16237C25.2875 6.00529 22.7294 3.44017 19.5709 3.44017H9.76142C6.60435 3.44017 4.0448 6.00529 4.0448 9.16237C4.0448 12.3194 6.60435 14.8705 9.76142 14.8705H19.5709ZM84.0682 17.9853C79.1917 17.9853 75.2313 14.0389 75.2313 9.16237C75.2313 4.28581 79.1917 0.325379 84.0682 0.325379H96.2596L94.2724 3.44017H84.2937C81.1367 3.44017 78.5716 6.00529 78.5716 9.16237C78.5716 12.3194 81.1367 14.8705 84.2937 14.8705H96.5415L94.5401 17.9853H84.0682ZM125.604 14.8705C122.996 14.8705 120.783 13.1228 120.107 10.7127H134.624L136.625 7.59792H120.107C120.783 5.20193 122.996 3.44017 125.604 3.44017H135.568L137.583 0.325379H125.378C120.501 0.325379 116.541 4.28581 116.541 9.16237C116.541 14.0389 120.501 17.9853 125.378 17.9853H135.85L137.851 14.8705H125.604Z" fill="#6A7C92"/>
</svg>
