<svg width="138" height="22" viewBox="0 0 138 22" fill="none" xmlns="http://www.w3.org/2000/svg">
<path d="M130.326 9.78845V12.6479H132.335V15.485C132.341 15.7023 132.331 15.9342 132.301 16.1338L132.284 16.2307C132.281 16.2523 132.277 16.2745 132.272 16.2973L132.256 16.367C132.253 16.3789 132.25 16.3909 132.246 16.403L132.223 16.4766C132.042 16.999 131.498 17.6609 130.275 17.6609C128.973 17.6609 128.451 16.901 128.308 16.367L128.291 16.2973L128.278 16.2307C128.242 16.0119 128.227 15.7385 128.227 15.485V6.52415C128.227 6.2424 128.244 5.93698 128.295 5.68817L128.329 5.53697C128.332 5.5265 128.334 5.51586 128.337 5.50506L128.356 5.43847C128.36 5.42709 128.363 5.41557 128.367 5.40393L128.392 5.33275C128.578 4.83766 129.069 4.17826 130.265 4.17826C131.188 4.17826 131.684 4.55428 131.95 4.94292L131.997 5.01585C132.012 5.04015 132.026 5.06441 132.039 5.08854L132.076 5.16046L132.109 5.23109L132.137 5.29987L132.162 5.3663L132.182 5.42982L132.199 5.48991L132.213 5.54604L132.225 5.59768C132.23 5.62335 132.235 5.65062 132.239 5.67896L132.251 5.76673C132.252 5.78173 132.254 5.79688 132.256 5.81211L132.268 5.94975L132.276 6.08175L132.283 6.26173L132.284 6.35396V7.44206H137.222L137.223 6.76472L137.226 6.52247L137.225 6.33469L137.221 6.11605L137.217 5.99834L137.208 5.81486L137.196 5.62691L137.185 5.50125C136.851 2.1911 134.363 0.917548 131.335 0.695938L131.133 0.682712L130.928 0.672538C130.826 0.668203 130.723 0.664988 130.62 0.662857L130.412 0.660029C130.378 0.659679 130.343 0.659679 130.308 0.659679L130.1 0.661099C130.065 0.661574 130.031 0.662169 129.996 0.662886L129.79 0.668652L129.586 0.677396L129.382 0.689179L129.181 0.704066C129.114 0.709553 129.047 0.715567 128.981 0.72212L128.783 0.743404C128.75 0.747224 128.718 0.751181 128.685 0.755276L128.49 0.781524C128.038 0.846696 127.603 0.939537 127.19 1.06367L127.015 1.11879C125.102 1.74646 123.711 3.08095 123.426 5.50125L123.396 5.76992L123.376 5.97793L123.357 6.19601L123.342 6.41298C123.333 6.55477 123.327 6.68835 123.327 6.79882L123.327 15.1476L123.329 15.2513L123.333 15.4088L123.338 15.5192L123.345 15.6371L123.354 15.7653L123.365 15.9066L123.387 16.149L123.405 16.3349C123.682 19.4109 126.014 20.7793 128.866 21.1021L129.066 21.123C129.401 21.1549 129.742 21.1729 130.087 21.178L130.294 21.1795L130.503 21.178C130.85 21.1729 131.193 21.1549 131.529 21.123L131.729 21.1021C134.591 20.7793 136.908 19.4109 137.189 16.3349L137.212 16.0637L137.229 15.8342L137.244 15.577L137.253 15.3555L137.261 15.0419V9.78845H130.326ZM96.2793 1.18711H91.3207V15.6917C91.3285 15.9445 91.3207 16.2284 91.2772 16.4366L91.2626 16.4998L91.2445 16.5669C91.2378 16.59 91.2305 16.6136 91.2226 16.6376L91.1967 16.7112C91.0096 17.2099 90.533 17.8606 89.393 17.8606C88.3239 17.8606 87.8358 17.2733 87.6313 16.787L87.6013 16.7112C87.5967 16.6987 87.5923 16.6863 87.5881 16.6741L87.5647 16.6019L87.5453 16.5329C87.5425 16.5217 87.5397 16.5106 87.5371 16.4998L87.5234 16.4366C87.4738 16.2284 87.4675 15.9445 87.4738 15.6917V1.18711H82.5167V15.2415L82.5158 15.3545L82.5175 15.5521L82.5245 15.8428L82.538 16.1961L82.5475 16.374L82.554 16.4684L82.5602 16.5379C82.8032 19.1381 84.3287 20.4916 86.483 21.0579L86.6665 21.1039C87.0674 21.1996 87.4887 21.2693 87.9264 21.3158L88.1297 21.3357L88.3351 21.3523L88.5427 21.3658C88.647 21.3717 88.7521 21.3765 88.858 21.3802L89.0706 21.386L89.2851 21.3889C89.321 21.3892 89.3569 21.3892 89.393 21.3892L89.6088 21.3878C89.6446 21.3873 89.6803 21.3867 89.716 21.386L89.929 21.3802C90.035 21.3765 90.1403 21.3717 90.2448 21.3658L90.4528 21.3523L90.6585 21.3357L90.862 21.3158C93.7622 21.0078 95.9376 19.6875 96.2373 16.5379L96.2413 16.5065L96.2494 16.424L96.2614 16.2595L96.2721 16.0603L96.278 15.9164L96.284 15.6956L96.2858 15.5521L96.2852 15.4173L96.282 15.2958C96.2813 15.2769 96.2804 15.2588 96.2793 15.2415V1.18711ZM50.7186 1.18711L48.245 16.5132L45.773 1.18711H37.7744L37.3502 20.7936H42.2504L42.3831 2.64329L45.7546 20.7936H50.7264L54.1009 2.64329L54.2341 20.7936H59.1467L58.7081 1.18711H50.7186ZM21.1039 1.18711L17.472 20.7936H22.7683L25.5052 2.64329L28.1763 20.7936H33.4358L29.8191 1.18711H21.1039ZM113.609 16.9726L108.992 1.18711H101.716V20.5892H106.529L106.249 4.2986L111.208 20.5892H118.186V1.18711H113.342L113.609 16.9726ZM69.0884 6.28976C69.0013 5.90256 69.0265 5.49118 69.0715 5.27618C69.0843 5.21912 69.0993 5.16159 69.1171 5.10415L69.1459 5.01813C69.3415 4.47458 69.7991 3.96401 70.8484 3.96401C71.9808 3.96401 72.6447 4.66994 72.6447 5.72935V6.92822H77.4785V5.56167C77.4785 2.47778 75.4602 1.29148 73.3035 0.875689L73.126 0.843227L72.9481 0.814095L72.77 0.788156L72.592 0.76527L72.4143 0.745297L72.2371 0.728099C72.1782 0.722814 72.1193 0.717967 72.0607 0.713537L71.8853 0.701472L71.7112 0.691764L71.5385 0.684275L71.3674 0.678865L71.1984 0.675396L70.9489 0.673526L70.8389 0.673913L70.6202 0.677034C70.5839 0.677817 70.5477 0.678731 70.5116 0.67978L70.2957 0.687675C70.2241 0.690846 70.1528 0.694557 70.0819 0.698819L69.8702 0.713264C66.9213 0.93884 64.62 2.15014 64.1597 4.99069C64.0235 5.85573 63.9898 6.62359 64.2065 7.60344C64.5477 9.21358 65.8891 10.3594 67.4288 11.3204L67.6671 11.4668C67.7071 11.491 67.7471 11.5151 67.7873 11.539L68.0291 11.6815L68.2724 11.8216L68.5166 11.9597L68.883 12.1632L69.846 12.6909L70.0799 12.8206L70.3098 12.9499L70.5351 13.079L70.7551 13.2081C71.8045 13.8326 72.6453 14.466 72.9479 15.2232C73.1153 15.673 73.0787 16.2401 72.9977 16.6019L72.9839 16.6602C72.9638 16.7472 72.9387 16.8342 72.9071 16.9198L72.8732 17.0048C72.6505 17.5251 72.1637 17.9686 71.0941 17.9686C69.8741 17.9686 69.1397 17.2672 69.1397 16.2101L69.1382 14.3284H63.9354V15.8241C63.9354 19.3347 66.1627 20.8596 68.9521 21.3124L69.1598 21.344C69.2988 21.3637 69.4392 21.3809 69.5806 21.3957L69.7935 21.416C70.0427 21.4376 70.295 21.4519 70.5491 21.4594L70.7674 21.4642C70.8038 21.4647 70.8403 21.4651 70.8768 21.4654L70.9864 21.4658C71.0593 21.4658 71.132 21.4653 71.2045 21.4642L71.4208 21.4595C71.4567 21.4584 71.4926 21.4572 71.5283 21.4559L71.742 21.4464C71.8129 21.4426 71.8835 21.4384 71.9537 21.4335L72.1634 21.4174C72.3025 21.4055 72.4401 21.3913 72.5762 21.3749L72.7793 21.3485L72.9798 21.3186C73.0463 21.308 73.1123 21.2969 73.1779 21.2851L73.3733 21.248C75.7346 20.7749 77.4915 19.492 77.8443 17.0255C77.8929 16.6576 77.9228 16.3179 77.9389 16.0073L77.9476 15.8046C77.9487 15.7715 77.9497 15.7388 77.9505 15.7065L77.9538 15.5169V15.3361L77.9508 15.1642L77.9451 15.0012L77.9372 14.8472C77.9358 14.8223 77.9342 14.7978 77.9325 14.7736L77.9218 14.6333L77.9096 14.5022L77.8962 14.3803L77.8747 14.2149L77.8524 14.0707L77.8233 13.9118L77.8098 13.8468C77.4693 12.1394 75.9746 10.9335 74.314 9.94079L74.0757 9.8004L73.8359 9.66272L73.595 9.52757L73.2333 9.32918L72.7536 9.07177L71.9356 8.63665L71.5989 8.45453C71.5621 8.43439 71.5256 8.4143 71.4892 8.39422L71.2738 8.2741L71.0645 8.15444C70.0341 7.55705 69.2554 6.97049 69.0884 6.28976ZM5.32469 6.24167C5.23571 5.87112 5.24962 5.48131 5.29527 5.2548L5.31416 5.16999L5.33561 5.08607C5.49891 4.49733 5.94537 3.8905 7.09934 3.8905C8.2461 3.8905 8.92131 4.60323 8.92131 5.67119V6.88467H13.8117V5.50729C13.8117 2.56441 11.981 1.32849 9.9352 0.845031L9.75681 0.804864C9.60776 0.772933 9.45783 0.744809 9.30763 0.720127L9.12731 0.692138L8.94696 0.667314L8.76683 0.645517L8.58714 0.626606C8.52735 0.620768 8.46767 0.615388 8.40815 0.610442L8.23008 0.596886L8.05316 0.585798L7.87765 0.577039L7.70376 0.570469L7.53174 0.565949L7.27773 0.5625H7.19425C7.12093 0.5625 7.0479 0.563012 6.97516 0.564045L6.75786 0.568715C6.61361 0.572881 6.47061 0.579162 6.329 0.587626L6.11763 0.601967C6.08258 0.604632 6.04762 0.607436 6.01275 0.61038L5.80467 0.629724C5.73568 0.636736 5.66709 0.644314 5.59889 0.652467L5.39552 0.678657C5.22707 0.701933 5.06122 0.728852 4.89821 0.759544L4.70399 0.798193L4.5126 0.840515L4.32413 0.886558C4.26181 0.902532 4.19998 0.919134 4.13868 0.936373L3.95634 0.990009C2.05841 1.57342 0.690668 2.79702 0.345403 4.92019C0.202907 5.79908 0.178487 6.57223 0.384425 7.5629C0.74699 9.27487 2.22571 10.4671 3.88004 11.4689L4.12328 11.6141C4.164 11.6381 4.20479 11.662 4.24564 11.6858L4.49141 11.8275L4.8615 12.036L5.35418 12.3078L6.08088 12.706L6.4339 12.9025L6.77709 13.0983L6.99933 13.2289C7.03589 13.2506 7.07219 13.2724 7.10824 13.2942L7.32121 13.4252C8.22945 13.9941 8.94079 14.58 9.21537 15.267C9.3952 15.7137 9.35315 16.2806 9.26817 16.6542L9.25364 16.7146C9.23265 16.8006 9.20688 16.8866 9.17501 16.9713L9.14107 17.0555C8.91261 17.585 8.42231 18.0391 7.33876 18.0391C6.11395 18.0391 5.38133 17.3256 5.38133 16.2539L5.37454 14.3672H0.113281V15.8664C0.113281 20.0747 3.28617 21.4579 6.80002 21.5618L7.02006 21.5666L7.24082 21.5682L7.45912 21.5667C7.56785 21.5651 7.67594 21.5624 7.78334 21.5585L7.99718 21.5491C8.10363 21.5435 8.20934 21.5368 8.31427 21.5288L8.52307 21.5112L8.72969 21.4902C8.79819 21.4826 8.86631 21.4745 8.93403 21.4658L9.13599 21.438C9.20291 21.4281 9.26941 21.4177 9.33549 21.4067L9.53242 21.3718C11.9777 20.914 13.8 19.6169 14.167 17.0799C14.2175 16.7175 14.2491 16.3822 14.2668 16.0749L14.2765 15.8742L14.2825 15.6819C14.2839 15.6192 14.2847 15.5579 14.285 15.498L14.2843 15.3226L14.2809 15.1557L14.2749 14.9975L14.2669 14.8479L14.257 14.707L14.2456 14.5749L14.2265 14.3934L14.2059 14.232L14.178 14.0484L14.1463 13.8705C13.807 12.1833 12.3569 10.983 10.7253 9.9958L10.4854 9.85282C10.4452 9.82923 10.4049 9.80577 10.3646 9.78241L10.122 9.64363L9.8784 9.50742L9.63448 9.37358L9.39089 9.24193L8.31607 8.67141L7.97236 8.4872L7.74916 8.36549L7.53146 8.24445L7.3199 8.12387C7.28519 8.1038 7.25076 8.08375 7.21663 8.0637L7.01551 7.94346C6.12748 7.40253 5.47539 6.86133 5.32469 6.24167Z" fill="#6A7C92"/>
</svg>
